<?xml version="1.0" encoding="UTF-8"?>
<svg width="800" height="800" viewBox="0 0 800 800" fill="none" xmlns="http://www.w3.org/2000/svg">
  <!-- Background Elements -->
  <circle cx="400" cy="400" r="350" fill="#DBEAFE" fill-opacity="0.2"/>
  
  <!-- Desk -->
  <rect x="150" y="450" width="500" height="20" rx="10" fill="#1E3A8A"/>
  <rect x="200" y="470" width="400" height="20" rx="10" fill="#1E3A8A"/>
  
  <!-- Book -->
  <rect x="300" y="350" width="200" height="150" rx="10" fill="#3B82F6"/>
  <rect x="310" y="360" width="180" height="130" rx="5" fill="white"/>
  <line x1="320" y1="380" x2="480" y2="380" stroke="#1E3A8A" stroke-width="2"/>
  <line x1="320" y1="400" x2="480" y2="400" stroke="#1E3A8A" stroke-width="2"/>
  <line x1="320" y1="420" x2="480" y2="420" stroke="#1E3A8A" stroke-width="2"/>
  
  <!-- Child's Head -->
  <circle cx="400" cy="250" r="60" fill="#FCD34D"/>
  
  <!-- Child's Body -->
  <path d="M400 310 L400 450" stroke="#FCD34D" stroke-width="40" stroke-linecap="round"/>
  
  <!-- Child's Arms -->
  <path d="M400 350 L300 400" stroke="#FCD34D" stroke-width="30" stroke-linecap="round"/>
  <path d="M400 350 L500 400" stroke="#FCD34D" stroke-width="30" stroke-linecap="round"/>
  
  <!-- Child's Legs -->
  <path d="M400 450 L350 550" stroke="#FCD34D" stroke-width="30" stroke-linecap="round"/>
  <path d="M400 450 L450 550" stroke="#FCD34D" stroke-width="30" stroke-linecap="round"/>
  
  <!-- Child's Face -->
  <circle cx="380" cy="240" r="8" fill="#1E3A8A"/>
  <circle cx="420" cy="240" r="8" fill="#1E3A8A"/>
  <path d="M390 270 Q400 280 410 270" stroke="#1E3A8A" stroke-width="3" fill="none"/>
  
  <!-- Hair -->
  <path d="M340 250 Q400 200 460 250" stroke="#1E3A8A" stroke-width="20" fill="none"/>
  
  <!-- Glasses -->
  <circle cx="380" cy="240" r="15" stroke="#1E3A8A" stroke-width="3" fill="none"/>
  <circle cx="420" cy="240" r="15" stroke="#1E3A8A" stroke-width="3" fill="none"/>
  <line x1="395" y1="240" x2="405" y2="240" stroke="#1E3A8A" stroke-width="3"/>
  <line x1="365" y1="240" x2="375" y2="240" stroke="#1E3A8A" stroke-width="3"/>
  <line x1="435" y1="240" x2="445" y2="240" stroke="#1E3A8A" stroke-width="3"/>
  
  <!-- Decorative Elements -->
  <circle cx="200" cy="200" r="20" fill="#60A5FA" fill-opacity="0.3"/>
  <circle cx="600" cy="300" r="15" fill="#60A5FA" fill-opacity="0.3"/>
  <circle cx="300" cy="600" r="25" fill="#60A5FA" fill-opacity="0.3"/>
  <circle cx="500" cy="550" r="18" fill="#60A5FA" fill-opacity="0.3"/>
</svg> 